<?xml version="1.0" ?><!-- Uploaded to: SVG Repo, www.svgrepo.com, Generator: SVG Repo Mixer Tools -->
<svg width="800px" height="800px" viewBox="0 0 2050 2050" data-name="Layer 2" id="Layer_2" xmlns="http://www.w3.org/2000/svg"><defs><style>.cls-1{fill:#c8c2e9;}.cls-2{fill:#b9b1e0;}.cls-3{fill:none;}.cls-4{fill:#231f20;}.cls-5{fill:#67baeb;}.cls-6{fill:#46a1f8;}.cls-7{fill:#4d4c78;}.cls-8{fill:#83d0fb;}.cls-9{fill:#dfdafd;}</style></defs><title/><path class="cls-1" d="M1416.4,358.8,191.1,1672.4a13.8,13.8,0,0,0,10.1,23.2H1426.4a13.8,13.8,0,0,0,13.8-13.8V368.2A13.8,13.8,0,0,0,1416.4,358.8ZM1252.5,1497.2a10.7,10.7,0,0,1-10.8,10.7H626a10.7,10.7,0,0,1-7.9-18.1l615.8-660.2c6.6-7.2,18.6-2.4,18.6,7.3Z"/><path class="cls-2" d="M1416.4,358.8l-37,39.6V1652.8a13.7,13.7,0,0,1-13.8,13.7H196.6l-5.5,5.9a13.8,13.8,0,0,0,10.1,23.2H1426.4a13.8,13.8,0,0,0,13.8-13.8V368.2A13.8,13.8,0,0,0,1416.4,358.8Z"/><path class="cls-3" d="M1233.9,829.6,618.1,1489.8a10.7,10.7,0,0,0,7.9,18.1h615.7a10.7,10.7,0,0,0,10.8-10.7V836.9C1252.5,827.2,1240.5,822.4,1233.9,829.6Z"/><path class="cls-4" d="M1369.3,487.6a20,20,0,0,0,0,40h66.8a27.1,27.1,0,0,0,4.1-.4V488a18.4,18.4,0,0,0-4.1-.4Z"/><path class="cls-4" d="M1399.4,635.4a20,20,0,0,0,0,40h36.7a18.4,18.4,0,0,0,4.1-.4V635.9a18.4,18.4,0,0,0-4.1-.5Z"/><path class="cls-4" d="M1399.4,783.3a20,20,0,0,0,0,40h36.7a18.4,18.4,0,0,0,4.1-.5V783.7a18.4,18.4,0,0,0-4.1-.4Z"/><path class="cls-4" d="M1399.4,931.1a20,20,0,0,0,0,40h36.7a27.1,27.1,0,0,0,4.1-.4V931.5a18.4,18.4,0,0,0-4.1-.4Z"/><path class="cls-4" d="M1369.3,1078.9a20,20,0,1,0,0,40h66.8a18.4,18.4,0,0,0,4.1-.4v-39.2a27.1,27.1,0,0,0-4.1-.4Z"/><path class="cls-4" d="M1399.4,1226.7a20,20,0,0,0,0,40h36.7a18.4,18.4,0,0,0,4.1-.4v-39.1a18.4,18.4,0,0,0-4.1-.5Z"/><path class="cls-4" d="M1399.4,1374.6a20,20,0,0,0,0,40h36.7a18.4,18.4,0,0,0,4.1-.5V1375a18.4,18.4,0,0,0-4.1-.4Z"/><path class="cls-4" d="M1399.4,1522.4a20,20,0,0,0,0,40h36.7a18.4,18.4,0,0,0,4.1-.4v-39.2a27.1,27.1,0,0,0-4.1-.4Z"/><path class="cls-4" d="M1290.7,1611a20,20,0,0,0-20,20v64.6h40V1631A20.1,20.1,0,0,0,1290.7,1611Z"/><path class="cls-4" d="M1142.8,1641.1a20.1,20.1,0,0,0-20,20v34.5h40v-34.5A20,20,0,0,0,1142.8,1641.1Z"/><path class="cls-4" d="M995,1641.1a20.1,20.1,0,0,0-20,20v34.5h40v-34.5A20,20,0,0,0,995,1641.1Z"/><path class="cls-4" d="M847.2,1641.1a20,20,0,0,0-20,20v34.5h40v-34.5A20.1,20.1,0,0,0,847.2,1641.1Z"/><path class="cls-4" d="M699.3,1611a20.1,20.1,0,0,0-20,20v64.6h40V1631A20,20,0,0,0,699.3,1611Z"/><path class="cls-4" d="M551.5,1641.1a20.1,20.1,0,0,0-20,20v34.5h40v-34.5A20,20,0,0,0,551.5,1641.1Z"/><path class="cls-4" d="M403.7,1641.1a20,20,0,0,0-20,20v34.5h40v-34.5A20.1,20.1,0,0,0,403.7,1641.1Z"/><rect class="cls-5" height="1366.37" width="304" x="1558.6" y="341.8"/><path class="cls-6" d="M1602,1418.5V341.8h-43.4V1708.2h304v-29.1h0C1718.7,1679.1,1602,1562.4,1602,1418.5Z"/><path class="cls-7" d="M1625.4,453.7a20,20,0,0,0,0-40h-66.8v40h66.8Z"/><path class="cls-7" d="M1595.3,601.5a20,20,0,1,0,0-40h-36.7v40h36.7Z"/><path class="cls-7" d="M1595.3,749.3a20,20,0,0,0,0-40h-36.7v40h36.7Z"/><path class="cls-7" d="M1595.3,897.2a20,20,0,0,0,0-40h-36.7v40h36.7Z"/><path class="cls-7" d="M1625.4,1045a20,20,0,0,0,0-40h-66.8v40h66.8Z"/><path class="cls-7" d="M1595.3,1192.8a20,20,0,0,0,0-40h-36.7v40h36.7Z"/><path class="cls-7" d="M1595.3,1340.7a20,20,0,0,0,0-40h-36.7v40h36.7Z"/><path class="cls-7" d="M1595.3,1488.5a20,20,0,1,0,0-40h-36.7v40h36.7Z"/><path class="cls-7" d="M1625.4,1636.3a20,20,0,0,0,0-40h-66.8v40h66.8Z"/><polygon class="cls-7" points="1810.5 341.8 1770.5 341.8 1770.5 341.8 1770.5 1708.2 1810.5 1708.2 1810.5 341.8 1810.5 341.8"/><rect class="cls-8" height="632.35" rx="19.3" ry="19.3" width="38.7" x="1731.8" y="466.6"/><rect class="cls-8" height="443.49" rx="11" ry="11" width="21.9" x="1840.7" y="1025"/><rect class="cls-9" height="724.94" rx="29.2" ry="29.2" transform="translate(957.7 -201) rotate(42.4)" width="58.4" x="708.8" y="772"/><rect class="cls-9" height="525.51" rx="27.5" ry="27.5" width="58.1" x="1252.5" y="897.2"/></svg>